<svg width="66" height="66" viewBox="0 0 66 66" fill="none" xmlns="http://www.w3.org/2000/svg">
<g filter="url(#filter0_d)">
<rect x="8" y="4" width="50" height="50" rx="12" fill="white"/>
</g>
<path d="M33 36.1094C32.6981 36.1094 32.4531 36.3544 32.4531 36.6562C32.4531 36.9581 32.6981 37.2031 33 37.2031C33.3019 37.2031 33.5469 36.9581 33.5469 36.6562C33.5469 36.3544 33.3019 36.1094 33 36.1094Z" fill="#0090CF"/>
<path d="M44.6532 18.3562C43.3074 17.8142 41.5578 17.5156 39.7266 17.5156C37.8954 17.5156 36.1457 17.8142 34.7999 18.3562C34.0047 18.6765 33.3975 19.0679 33 19.5072C32.6025 19.0679 31.9953 18.6765 31.2001 18.3562C29.8543 17.8142 28.1046 17.5156 26.2734 17.5156C24.4422 17.5156 22.6926 17.8142 21.3468 18.3562C19.8334 18.9657 19 19.8325 19 20.7969V33.9219C19 34.8862 19.8334 35.753 21.3468 36.3626C22.5984 36.8667 24.1996 37.1598 25.8906 37.1984V37.2031C25.8906 39.0738 28.947 40.4844 33 40.4844C37.053 40.4844 40.1094 39.0738 40.1094 37.2031V37.1984C41.8004 37.1598 43.4016 36.8667 44.6532 36.3626C46.1666 35.753 47 34.8862 47 33.9219V20.7969C47 19.8325 46.1666 18.9657 44.6532 18.3562ZM45.9062 30.6406C45.9062 31.1075 45.2695 31.6539 44.2446 32.0668C43.1352 32.5136 41.6459 32.7839 40.1094 32.8227V30.6406C40.1094 30.639 40.1093 30.6375 40.1093 30.6359C41.8004 30.5974 43.4015 30.3042 44.6533 29.8001C45.1445 29.6022 45.5636 29.3771 45.9063 29.1305L45.9062 30.6406ZM32.4531 24.0781C32.4531 24.545 31.8164 25.0914 30.7914 25.5043C29.5901 25.9881 27.9434 26.2656 26.2734 26.2656C24.6035 26.2656 22.9567 25.9881 21.7554 25.5043C20.7305 25.0914 20.0938 24.545 20.0938 24.0781V22.568C20.4365 22.8146 20.8555 23.0397 21.3468 23.2376C22.6926 23.7796 24.4422 24.0781 26.2734 24.0781C28.1046 24.0781 29.8543 23.7796 31.2001 23.2376C31.6913 23.0397 32.1104 22.8146 32.4531 22.568V24.0781ZM21.3468 26.5188C22.6926 27.0608 24.4422 27.3594 26.2734 27.3594C28.1046 27.3594 29.8543 27.0608 31.2001 26.5188C31.6913 26.321 32.1104 26.0959 32.4531 25.8492V27.3691C31.0384 27.417 29.6816 27.6492 28.5841 28.0356C27.4835 28.4233 26.6914 28.9403 26.2607 29.5467C24.5951 29.5453 22.9537 29.2681 21.7554 28.7855C20.7305 28.3727 20.0938 27.8262 20.0938 27.3594V25.8492C20.4365 26.0959 20.8555 26.321 21.3468 26.5188ZM20.0938 29.1305C20.4365 29.3771 20.8555 29.6022 21.3468 29.8001C22.5985 30.3042 24.1997 30.5973 25.8908 30.6359C25.8908 30.6375 25.8907 30.6391 25.8907 30.6406V32.8227C24.3541 32.7839 22.8648 32.5136 21.7555 32.0668C20.7305 31.6539 20.0938 31.1075 20.0938 30.6406V29.1305ZM27.0422 30.3719C27.4475 29.4288 29.7868 28.4531 33 28.4531C36.2132 28.4531 38.5525 29.4287 38.9573 30.3709C38.9966 30.4628 39.0156 30.551 39.0156 30.6406C39.0156 31.1214 38.4229 31.6555 37.43 32.0692C36.2555 32.5586 34.6822 32.8281 33 32.8281C31.3178 32.8281 29.7445 32.5586 28.57 32.0692C27.5771 31.6555 26.9844 31.1214 26.9844 30.6406C26.9844 30.551 27.0035 30.4628 27.0422 30.3719ZM45.9062 27.3594C45.9062 27.8262 45.2695 28.3727 44.2446 28.7855C43.0464 29.2681 41.405 29.5453 39.7395 29.5467C39.3091 28.9406 38.5169 28.4234 37.4159 28.0356C36.3184 27.6491 34.9616 27.417 33.5469 27.3691V25.8492C33.8896 26.0959 34.3087 26.321 34.7999 26.5188C36.1457 27.0608 37.8954 27.3594 39.7266 27.3594C41.5578 27.3594 43.3074 27.0608 44.6532 26.5188C45.1445 26.321 45.5635 26.0959 45.9062 25.8492V27.3594ZM45.9062 24.0781C45.9062 24.545 45.2695 25.0914 44.2446 25.5043C43.0432 25.9881 41.3965 26.2656 39.7266 26.2656C38.0566 26.2656 36.4099 25.9881 35.2086 25.5043C34.1836 25.0914 33.5469 24.545 33.5469 24.0781V22.568C33.8896 22.8146 34.3087 23.0397 34.7999 23.2376C36.1457 23.7796 37.8954 24.0781 39.7266 24.0781C41.5578 24.0781 43.3074 23.7796 44.6532 23.2376C45.1445 23.0397 45.5635 22.8146 45.9062 22.568V24.0781ZM35.2086 19.3707C36.4099 18.8869 38.0566 18.6094 39.7266 18.6094C41.3965 18.6094 43.0432 18.8869 44.2446 19.3707C45.2695 19.7836 45.9062 20.33 45.9062 20.7969C45.9062 21.2637 45.2695 21.8102 44.2446 22.223C43.0432 22.7069 41.3965 22.9844 39.7266 22.9844C38.0566 22.9844 36.4099 22.7069 35.2086 22.223C34.1836 21.8102 33.5469 21.2637 33.5469 20.7969C33.5469 20.33 34.1836 19.7836 35.2086 19.3707ZM21.7554 19.3707C22.9567 18.8869 24.6035 18.6094 26.2734 18.6094C27.9434 18.6094 29.5901 18.8869 30.7914 19.3707C31.8164 19.7836 32.4531 20.33 32.4531 20.7969C32.4531 21.2637 31.8164 21.8102 30.7914 22.223C29.5901 22.7069 27.9434 22.9844 26.2734 22.9844C24.6035 22.9844 22.9567 22.7069 21.7554 22.223C20.7305 21.8102 20.0938 21.2637 20.0938 20.7969C20.0938 20.33 20.7305 19.7836 21.7554 19.3707ZM21.7554 35.348C20.7305 34.9352 20.0938 34.3887 20.0938 33.9219V32.4117C20.4365 32.6584 20.8555 32.8835 21.3468 33.0813C22.5984 33.5854 24.1996 33.8786 25.8906 33.9172V36.104C24.3541 36.0651 22.8648 35.7949 21.7554 35.348ZM37.43 38.6317C36.2555 39.1211 34.6822 39.3906 33 39.3906C31.3178 39.3906 29.7445 39.1211 28.57 38.6317C27.5771 38.218 26.9844 37.6839 26.9844 37.2031V35.7249C27.1082 35.8145 27.2451 35.9036 27.3969 35.9914C28.2462 36.4828 29.4017 36.8463 30.7386 37.0426C30.7655 37.0465 30.7922 37.0484 30.8187 37.0484C31.0856 37.0484 31.3191 36.8528 31.359 36.5809C31.4029 36.2821 31.1962 36.0043 30.8974 35.9604C28.3558 35.5873 26.9844 34.6317 26.9844 33.9219V32.4388C28.2222 33.3445 30.4071 33.9219 33 33.9219C35.5929 33.9219 37.7778 33.3445 39.0156 32.4388V33.9219C39.0156 34.6317 37.6442 35.5873 35.1026 35.9604C34.8038 36.0043 34.597 36.2821 34.641 36.5809C34.6809 36.8529 34.9144 37.0484 35.1813 37.0484C35.2077 37.0484 35.2345 37.0465 35.2614 37.0426C36.5983 36.8463 37.7538 36.4829 38.6031 35.9914C38.7548 35.9036 38.8918 35.8145 39.0156 35.7249V37.2031C39.0156 37.6839 38.4229 38.218 37.43 38.6317ZM44.2446 35.348C43.1352 35.7948 41.6459 36.0651 40.1094 36.104V33.9171C41.8004 33.8785 43.4016 33.5854 44.6532 33.0813C45.1445 32.8834 45.5635 32.6583 45.9062 32.4117V33.9219C45.9062 34.3887 45.2695 34.9352 44.2446 35.348Z" fill="#0090CF"/>
<defs>
<filter id="filter0_d" x="0" y="0" width="66" height="66" filterUnits="userSpaceOnUse" color-interpolation-filters="sRGB">
<feFlood flood-opacity="0" result="BackgroundImageFix"/>
<feColorMatrix in="SourceAlpha" type="matrix" values="0 0 0 0 0 0 0 0 0 0 0 0 0 0 0 0 0 0 127 0"/>
<feOffset dy="4"/>
<feGaussianBlur stdDeviation="4"/>
<feColorMatrix type="matrix" values="0 0 0 0 0 0 0 0 0 0 0 0 0 0 0 0 0 0 0.25 0"/>
<feBlend mode="normal" in2="BackgroundImageFix" result="effect1_dropShadow"/>
<feBlend mode="normal" in="SourceGraphic" in2="effect1_dropShadow" result="shape"/>
</filter>
</defs>
</svg>
