<svg width="66" height="66" viewBox="0 0 66 66" fill="none" xmlns="http://www.w3.org/2000/svg">
<g filter="url(#filter0_d)">
<rect x="8" y="4" width="50" height="50" rx="12" fill="white"/>
</g>
<path d="M45.6875 34.4324V18.8555C45.6875 17.9357 44.9392 17.1875 44.0195 17.1875H40.0547V16.6406C40.0547 15.736 39.3187 15 38.4141 15C37.5094 15 36.7734 15.736 36.7734 16.6406V17.1875H27.9141V16.6406C27.9141 15.736 27.1781 15 26.2734 15C25.3688 15 24.6328 15.736 24.6328 16.6406V17.1875H20.668C19.7483 17.1875 19 17.9357 19 18.8555V39.1445C19 40.0643 19.7483 40.8125 20.668 40.8125H28.1219C28.4239 40.8125 28.6688 40.5677 28.6688 40.2656C28.6688 39.9636 28.4239 39.7188 28.1219 39.7188H20.668C20.3513 39.7188 20.0938 39.4612 20.0938 39.1445V18.8555C20.0938 18.5388 20.3513 18.2812 20.668 18.2812H24.6328V18.8281C24.6328 19.7328 25.3688 20.4688 26.2734 20.4688C27.1781 20.4688 27.9141 19.7328 27.9141 18.8281V18.2812H36.7734V18.8281C36.7734 19.7328 37.5094 20.4688 38.4141 20.4688C39.3187 20.4688 40.0547 19.7328 40.0547 18.8281V18.2812H44.0195C44.3362 18.2812 44.5938 18.5388 44.5938 18.8555V21.5625H23.9219C23.6199 21.5625 23.375 21.8073 23.375 22.1094C23.375 22.4114 23.6199 22.6562 23.9219 22.6562H44.5938V33.5083C44.1281 33.2146 43.6124 32.9937 43.0625 32.8613V24.7344C43.0625 24.4323 42.8176 24.1875 42.5156 24.1875H22.1719C21.8699 24.1875 21.625 24.4323 21.625 24.7344V37.6406C21.625 37.9427 21.8699 38.1875 22.1719 38.1875H36.7295C36.7635 38.7243 36.88 39.2389 37.0669 39.7188H32.4969C32.1949 39.7188 31.95 39.9636 31.95 40.2656C31.95 40.5677 32.1949 40.8125 32.4969 40.8125H37.6541C38.5852 42.1345 40.123 43 41.8594 43C44.6939 43 47 40.6939 47 37.8594C47 36.5439 46.5031 35.3425 45.6875 34.4324ZM26.8203 18.8281C26.8203 19.1297 26.575 19.375 26.2734 19.375C25.9719 19.375 25.7266 19.1297 25.7266 18.8281V16.6406C25.7266 16.3391 25.9719 16.0938 26.2734 16.0938C26.575 16.0938 26.8203 16.3391 26.8203 16.6406V18.8281ZM38.9609 18.8281C38.9609 19.1297 38.7156 19.375 38.4141 19.375C38.1125 19.375 37.8672 19.1297 37.8672 18.8281V16.6406C37.8672 16.3391 38.1125 16.0938 38.4141 16.0938C38.7156 16.0938 38.9609 16.3391 38.9609 16.6406V18.8281ZM41.8594 32.7188C41.6051 32.7188 41.3552 32.7376 41.1107 32.7734H38.9937V29.6016H41.9688V32.7201C41.9324 32.7194 41.896 32.7188 41.8594 32.7188ZM36.7758 37.0938H34.925V33.8672H37.9V34.5844C37.3169 35.2881 36.9174 36.1494 36.7758 37.0938ZM22.7188 29.6016H25.6937V32.7734H22.7188V29.6016ZM26.7875 29.6016H29.7625V32.7734H26.7875V29.6016ZM34.925 29.6016H37.9V32.7734H34.925V29.6016ZM33.8313 32.7734H30.8562V29.6016H33.8313V32.7734ZM34.925 28.5078V25.2812H37.9V28.5078H34.925ZM33.8313 28.5078H30.8562V25.2812H33.8313V28.5078ZM29.7625 28.5078H26.7875V25.2812H29.7625V28.5078ZM29.7625 33.8672V37.0938H26.7875V33.8672H29.7625ZM30.8562 33.8672H33.8313V37.0938H30.8562V33.8672ZM41.9688 28.5078H38.9937V25.2812H41.9688V28.5078ZM25.6937 25.2812V28.5078H22.7188V25.2812H25.6937ZM22.7188 33.8672H25.6937V37.0938H22.7188V33.8672ZM41.8594 41.9062C39.6279 41.9062 37.8125 40.0908 37.8125 37.8594C37.8125 35.6279 39.6279 33.8125 41.8594 33.8125C44.0908 33.8125 45.9062 35.6279 45.9062 37.8594C45.9062 40.0908 44.0908 41.9062 41.8594 41.9062Z" fill="#0090CF"/>
<path d="M43.4414 36.5338L41.75 38.2253L40.9974 37.4727C40.7839 37.2591 40.4377 37.2591 40.2239 37.4727C40.0104 37.6862 40.0104 38.0325 40.2239 38.246L41.3633 39.3854C41.4658 39.4879 41.6049 39.5455 41.7499 39.5455C41.895 39.5455 42.034 39.4879 42.1366 39.3854L44.2148 37.3072C44.4283 37.0937 44.4283 36.7474 44.2148 36.5338C44.0012 36.3203 43.655 36.3203 43.4414 36.5338Z" fill="#0090CF"/>
<path d="M30.3094 39.7188C30.1656 39.7188 30.0245 39.7773 29.9227 39.879C29.8211 39.9807 29.7625 40.1218 29.7625 40.2656C29.7625 40.4095 29.821 40.5505 29.9227 40.6523C30.0245 40.754 30.1656 40.8125 30.3094 40.8125C30.4532 40.8125 30.5943 40.754 30.696 40.6523C30.7977 40.5505 30.8563 40.4095 30.8563 40.2656C30.8563 40.1218 30.7977 39.9807 30.696 39.879C30.5943 39.7773 30.4532 39.7188 30.3094 39.7188Z" fill="#0090CF"/>
<path d="M22.121 22.496C22.2227 22.3943 22.2812 22.2532 22.2812 22.1094C22.2812 21.9655 22.2227 21.8245 22.121 21.7227C22.0193 21.621 21.8782 21.5625 21.7344 21.5625C21.5899 21.5625 21.4495 21.621 21.3477 21.7227C21.246 21.8245 21.1875 21.9655 21.1875 22.1094C21.1875 22.2532 21.246 22.3943 21.3477 22.496C21.4495 22.5977 21.5899 22.6562 21.7344 22.6562C21.8782 22.6562 22.0193 22.5977 22.121 22.496Z" fill="#0090CF"/>
<defs>
<filter id="filter0_d" x="0" y="0" width="66" height="66" filterUnits="userSpaceOnUse" color-interpolation-filters="sRGB">
<feFlood flood-opacity="0" result="BackgroundImageFix"/>
<feColorMatrix in="SourceAlpha" type="matrix" values="0 0 0 0 0 0 0 0 0 0 0 0 0 0 0 0 0 0 127 0"/>
<feOffset dy="4"/>
<feGaussianBlur stdDeviation="4"/>
<feColorMatrix type="matrix" values="0 0 0 0 0 0 0 0 0 0 0 0 0 0 0 0 0 0 0.25 0"/>
<feBlend mode="normal" in2="BackgroundImageFix" result="effect1_dropShadow"/>
<feBlend mode="normal" in="SourceGraphic" in2="effect1_dropShadow" result="shape"/>
</filter>
</defs>
</svg>
