<svg width="140" viewBox="0 0 404 110" fill="none" xmlns="http://www.w3.org/2000/svg">
<path d="M63.1291 74.0797C60.9996 75.1445 58.628 76.0641 56.0145 76.8384C53.7882 77.516 51.0779 78.0968 47.8836 78.5808C44.6894 79.1616 41.1563 79.4519 37.2844 79.4519C30.799 79.4519 25.2332 78.5324 20.587 76.6932C15.9408 74.8541 12.1173 72.2406 9.11662 68.8527C6.11593 65.3681 3.88961 61.2542 2.43766 56.5112C1.08251 51.7681 0.404935 46.4927 0.404935 40.6849C0.404935 34.5868 1.13091 29.021 2.58286 23.9875C4.1316 18.9541 6.35792 14.6951 9.26182 11.2104C12.2625 7.62892 15.9408 4.87022 20.2966 2.93429C24.7493 0.99836 29.8311 0.0303957 35.5421 0.0303957C40.7691 0.0303957 45.3185 0.853164 49.1904 2.4987C53.0622 4.04745 56.2565 6.22537 58.7732 9.03247C61.3868 11.8396 63.3227 15.1791 64.581 19.0509C65.8394 22.9228 66.4686 27.1334 66.4686 31.6829C66.4686 33.1348 66.4202 34.5384 66.3234 35.8935C66.2266 37.1519 66.0814 38.265 65.8878 39.233C65.6942 40.3945 65.549 41.4593 65.4522 42.4273H14.0532C14.15 47.3639 14.7792 51.5261 15.9408 54.914C17.1991 58.2051 18.9415 60.867 21.1678 62.8997C23.3941 64.9325 26.0076 66.3844 29.0083 67.2556C32.1058 68.1268 35.4937 68.5623 39.1719 68.5623C42.3662 68.5623 45.2701 68.3203 47.8836 67.8364C50.4971 67.3524 52.7719 66.82 54.7078 66.2392C56.9341 65.5616 58.9184 64.7389 60.6608 63.7709L63.1291 74.0797ZM53.2558 30.9569C53.2558 24.3747 51.7071 19.3413 48.6096 15.8566C45.6089 12.372 41.0595 10.6296 34.9613 10.6296C29.2503 10.6296 24.5073 12.3236 20.7322 15.7114C17.0539 19.0993 14.876 24.6651 14.1984 32.4088H53.2558V30.9569ZM96.7451 1.48234L116.782 30.3761L136.964 1.48234H152.064L125.348 39.8138L152.209 78H137.109L116.782 49.2514L96.7451 78H81.4996L108.361 39.8138L81.6448 1.48234H96.7451Z" fill="#009BFF"/>
<path d="M181.389 1.48234L182.841 10.6296C184.583 8.69368 186.665 6.95134 189.084 5.4026C191.117 4.04745 193.634 2.83749 196.635 1.77273C199.635 0.611173 203.168 0.0303957 207.234 0.0303957C211.686 0.0303957 215.752 0.901562 219.43 2.64389C223.205 4.28944 226.399 6.75775 229.013 10.0488C231.723 13.2431 233.804 17.2118 235.256 21.9548C236.708 26.6978 237.434 32.1184 237.434 38.2166C237.434 44.9924 236.515 50.9454 234.676 56.0756C232.933 61.2058 230.417 65.5132 227.125 68.9979C223.931 72.4826 220.011 75.0961 215.365 76.8384C210.815 78.5808 205.782 79.4519 200.264 79.4519C197.748 79.4519 195.473 79.3068 193.44 79.0164C191.408 78.726 189.665 78.3872 188.213 78C186.471 77.6128 184.922 77.1288 183.567 76.5481L183.712 81.0491V107.62H170.209V1.48234H181.389ZM183.712 65.6584C184.971 66.2392 186.423 66.7232 188.068 67.1104C189.423 67.4976 191.02 67.8364 192.859 68.1268C194.699 68.3203 196.731 68.4171 198.958 68.4171C207.185 68.4171 213.38 66.0456 217.543 61.3026C221.802 56.4628 223.931 49.1546 223.931 39.3782C223.931 29.9889 222.14 22.9712 218.559 18.3249C214.978 13.5819 210.186 11.2104 204.185 11.2104C201.087 11.2104 198.28 11.7428 195.763 12.8075C193.343 13.8723 191.214 15.0339 189.375 16.2922C187.245 17.7442 185.358 19.3897 183.712 21.2288V65.6584ZM259.643 5.11221C261.967 4.24104 264.628 3.41827 267.629 2.64389C270.146 1.96632 273.098 1.38554 276.486 0.901562C279.971 0.320784 283.746 0.0303957 287.811 0.0303957C292.167 0.0303957 296.136 0.46598 299.717 1.33715C303.299 2.11152 306.396 3.51507 309.01 5.5478C311.623 7.58052 313.608 10.2908 314.963 13.6787C316.415 17.0666 317.141 21.3256 317.141 26.4558V78H306.106L304.944 69.5787C303.105 71.4178 300.927 73.0634 298.41 74.5153C296.184 75.7737 293.474 76.9352 290.28 78C287.182 78.968 283.504 79.4519 279.245 79.4519C271.695 79.4519 265.742 77.5644 261.386 73.7894C257.03 70.0143 254.852 64.8357 254.852 58.2535C254.852 53.7041 255.772 49.929 257.611 46.9283C259.547 43.8308 262.112 41.4109 265.306 39.6686C268.5 37.8294 272.227 36.5711 276.486 35.8935C280.842 35.1191 285.44 34.732 290.28 34.732C292.893 34.732 295.361 34.8287 297.684 35.0223C300.104 35.1191 302.04 35.2643 303.492 35.4579V27.327C303.492 22.1 302.186 18.1313 299.572 15.421C296.959 12.6139 292.119 11.2104 285.053 11.2104C281.665 11.2104 278.519 11.5008 275.615 12.0816C272.808 12.5655 270.388 13.0979 268.355 13.6787C265.838 14.4531 263.66 15.2758 261.821 16.147L259.643 5.11221ZM303.492 45.6216C301.847 45.428 300.008 45.2344 297.975 45.0408C295.942 44.8472 293.571 44.7504 290.86 44.7504C287.763 44.7504 284.859 44.944 282.149 45.3312C279.438 45.6216 277.067 46.2507 275.034 47.2187C273.001 48.1867 271.356 49.5418 270.097 51.2842C268.936 52.9297 268.355 55.0592 268.355 57.6727C268.355 60.1894 268.839 62.1738 269.807 63.6257C270.775 65.0777 271.985 66.1908 273.437 66.9652C274.889 67.7396 276.389 68.2719 277.938 68.5623C279.584 68.7559 280.987 68.8527 282.149 68.8527C285.537 68.8527 288.537 68.3687 291.151 67.4008C293.764 66.4328 295.991 65.3197 297.83 64.0613C299.959 62.7061 301.847 61.109 303.492 59.2699V45.6216ZM334.694 96.7301C335.275 97.0205 335.953 97.2625 336.727 97.4561C337.405 97.6497 338.179 97.7949 339.05 97.8917C339.921 97.9885 340.889 98.0369 341.954 98.0369C344.955 98.0369 347.52 97.4561 349.649 96.2945C351.779 95.133 353.57 93.5842 355.022 91.6483C356.474 89.8092 357.732 87.6797 358.797 85.2597C359.862 82.8398 360.878 80.3715 361.846 77.8548L333.388 1.48234H347.617L364.895 51.2842L368.234 64.7873L389.723 1.48234H403.662L374.913 79.0164C373.171 83.7594 371.332 87.97 369.396 91.6483C367.46 95.4234 365.234 98.5693 362.717 101.086C360.297 103.699 357.49 105.684 354.296 107.039C351.101 108.394 347.326 109.072 342.971 109.072C341.325 109.072 339.873 108.975 338.615 108.781C337.453 108.685 336.388 108.539 335.42 108.346C334.356 108.152 333.388 107.91 332.516 107.62L334.694 96.7301Z" fill="#414141"/>
</svg>
