<svg width="66" height="66" viewBox="0 0 66 66" fill="none" xmlns="http://www.w3.org/2000/svg">
<g filter="url(#filter0_d)">
<rect x="8" y="4" width="50" height="50" rx="12" fill="white"/>
</g>
<path d="M44.726 26.6993C44.726 26.0376 44.4328 25.4435 43.97 25.0387C44.4328 24.634 44.726 24.0399 44.726 23.3782C44.726 22.1617 43.7362 21.1719 42.5197 21.1719H42.0459C41.7837 21.1719 41.5345 21.2278 41.3088 21.3276V17.1185C41.3089 15.9666 40.3717 15.0294 39.2198 15.0294H30.0302C28.8783 15.0294 27.9411 15.9666 27.9411 17.1185V21.491C27.3883 20.8772 26.651 20.4464 25.7868 20.2759C25.0804 20.1374 24.4059 20.6992 24.4059 21.4166V28.1114C24.4059 28.9552 24.2558 29.7782 23.9596 30.5573C23.4923 31.7873 22.9378 33.6488 22.9051 35.6185L21.3813 37.6728C21.3117 37.7668 21.2739 37.8808 21.2739 37.9979V42.4249C21.2739 42.7263 21.5183 42.9706 21.8197 42.9706H30.386C30.547 42.9706 30.6997 42.8995 30.8034 42.7764L32.6747 40.5542C33.566 40.4517 36.7464 39.9645 38.4972 38.0993H39.2198C40.3717 38.0993 41.3089 37.1622 41.3089 36.0102V35.3921C41.5345 35.4919 41.7837 35.5478 42.046 35.5478H42.5198C43.7363 35.5478 44.7261 34.5581 44.7261 33.3415C44.7261 32.6798 44.4329 32.0857 43.97 31.6809C44.4329 31.2762 44.7261 30.682 44.7261 30.0204C44.7261 29.3587 44.4329 28.7645 43.97 28.3598C44.4328 27.9552 44.726 27.361 44.726 26.6993ZM42.046 22.2634H42.5198C43.1345 22.2634 43.6346 22.7635 43.6346 23.3783C43.6346 23.993 43.1345 24.4931 42.5198 24.4931H42.046C41.6396 24.4931 41.3089 24.1624 41.3089 23.756V23.0006C41.3089 22.5941 41.6396 22.2634 42.046 22.2634ZM35.6525 16.1209V16.2415C35.6525 16.8053 35.1938 17.264 34.63 17.264C34.0662 17.264 33.6076 16.8053 33.6076 16.2415V16.1209H35.6525ZM40.2174 36.0103C40.2174 36.5604 39.7699 37.0079 39.2198 37.0079H30.0302C29.4801 37.0079 29.0326 36.5604 29.0326 36.0103V33.1384C29.0326 32.837 28.7882 32.5926 28.4869 32.5926C28.1855 32.5926 27.9411 32.837 27.9411 33.1384V36.0103V36.0104C27.9411 37.1623 28.8783 38.0994 30.0302 38.0994H36.7859C34.9567 39.267 32.3879 39.487 32.3569 39.4895C32.2113 39.5009 32.0764 39.5702 31.9823 39.682L30.1321 41.8791H22.3654V38.1782L23.8876 36.126C23.9573 36.032 23.995 35.918 23.995 35.8009C23.995 33.9298 24.5306 32.1275 24.98 30.9451C25.3233 30.0416 25.4974 29.0883 25.4974 28.1115V21.4166C25.4974 21.3758 25.5345 21.3387 25.5762 21.3468C26.9907 21.6258 27.9411 22.8906 27.9411 24.4939V28.3362C27.9411 28.6376 28.1855 28.882 28.4869 28.882C28.7882 28.882 29.0326 28.6376 29.0326 28.3362V24.4939V17.1185C29.0326 16.5684 29.4801 16.1209 30.0302 16.1209H32.5161V16.2415C32.5161 17.4071 33.4644 18.3555 34.6299 18.3555C35.7955 18.3555 36.7439 17.4071 36.7439 16.2415V16.1209H39.2197C39.7698 16.1209 40.2174 16.5684 40.2174 17.1185V36.0103H40.2174ZM43.6346 33.3416C43.6346 33.9563 43.1345 34.4564 42.5197 34.4564H42.0459C41.6395 34.4564 41.3088 34.1257 41.3088 33.7193V32.9639C41.3088 32.5575 41.6395 32.2268 42.0459 32.2268H42.5197C43.1345 32.2267 43.6346 32.7269 43.6346 33.3416ZM43.6346 30.0205C43.6346 30.6352 43.1345 31.1353 42.5197 31.1353H42.0459C41.6395 31.1353 41.3088 30.8046 41.3088 30.3982V29.6428C41.3088 29.2363 41.6395 28.9057 42.0459 28.9057H42.5197C43.1345 28.9057 43.6346 29.4058 43.6346 30.0205ZM42.046 27.8142C41.6396 27.8142 41.3089 27.4835 41.3089 27.0771V26.3217C41.3089 25.9152 41.6396 25.5846 42.046 25.5846H42.5198C43.1345 25.5846 43.6346 26.0847 43.6346 26.6994C43.6346 27.3141 43.1345 27.8143 42.5198 27.8143H42.046V27.8142Z" fill="#0090CF"/>
<path d="M35.9255 30.6671H33.3186C32.2781 30.6671 31.4315 31.5136 31.4315 32.5542C31.4315 33.5947 32.2781 34.4412 33.3186 34.4412H35.9255C36.966 34.4412 37.8125 33.5947 37.8125 32.5542C37.8125 31.5136 36.9661 30.6671 35.9255 30.6671ZM35.9255 33.3497H33.3186C32.8799 33.3497 32.523 32.9928 32.523 32.5541C32.523 32.1154 32.8799 31.7585 33.3186 31.7585H35.9255C36.3642 31.7585 36.7211 32.1154 36.7211 32.5541C36.7211 32.9928 36.3642 33.3497 35.9255 33.3497Z" fill="#0090CF"/>
<path d="M38.3861 22.5278C38.3567 22.2503 38.1225 22.0397 37.8435 22.0397H36.4125V21.6363C36.4125 20.6534 35.6129 19.8538 34.6299 19.8538C33.647 19.8538 32.8474 20.6534 32.8474 21.6363V22.0397H31.4007C31.1216 22.0397 30.8874 22.2503 30.858 22.5278L30.3123 27.6733C30.2959 27.8272 30.3457 27.9808 30.4492 28.0959C30.5527 28.2109 30.7002 28.2766 30.855 28.2766H38.3892C38.544 28.2766 38.6915 28.2109 38.795 28.0959C38.8985 27.9808 38.9483 27.8272 38.932 27.6733L38.3861 22.5278ZM33.9389 21.6363C33.9389 21.2552 34.2489 20.9452 34.6299 20.9452C35.011 20.9452 35.3211 21.2552 35.3211 21.6363V22.0397H33.9389V21.6363ZM31.4616 27.1851L31.8916 23.1311H32.8475V23.6737C32.8475 23.9751 33.0919 24.2194 33.3932 24.2194C33.6946 24.2194 33.9389 23.9751 33.9389 23.6737V23.1311H35.3211V23.6737C35.3211 23.9751 35.5655 24.2194 35.8668 24.2194C36.1682 24.2194 36.4126 23.9751 36.4126 23.6737V23.1311H37.3526L37.7826 27.1851H31.4616Z" fill="#0090CF"/>
<path d="M28.996 30.4964C28.8833 30.2215 28.5572 30.0875 28.2832 30.2012C28.0086 30.3152 27.8742 30.6389 27.988 30.9139C28.1017 31.1884 28.4263 31.3231 28.7008 31.2092C28.9748 31.0954 29.1103 30.7709 28.996 30.4964Z" fill="#0090CF"/>
<defs>
<filter id="filter0_d" x="0" y="0" width="66" height="66" filterUnits="userSpaceOnUse" color-interpolation-filters="sRGB">
<feFlood flood-opacity="0" result="BackgroundImageFix"/>
<feColorMatrix in="SourceAlpha" type="matrix" values="0 0 0 0 0 0 0 0 0 0 0 0 0 0 0 0 0 0 127 0"/>
<feOffset dy="4"/>
<feGaussianBlur stdDeviation="4"/>
<feColorMatrix type="matrix" values="0 0 0 0 0 0 0 0 0 0 0 0 0 0 0 0 0 0 0.25 0"/>
<feBlend mode="normal" in2="BackgroundImageFix" result="effect1_dropShadow"/>
<feBlend mode="normal" in="SourceGraphic" in2="effect1_dropShadow" result="shape"/>
</filter>
</defs>
</svg>
