<svg width="66" height="66" viewBox="0 0 66 66" fill="none" xmlns="http://www.w3.org/2000/svg">
<g filter="url(#filter0_d)">
<rect x="8" y="4" width="50" height="50" rx="12" fill="white"/>
</g>
<path d="M30.1055 18.0312H27.1602C26.8797 18.0312 26.6523 18.2586 26.6523 18.5391C26.6523 18.8195 26.8797 19.0469 27.1602 19.0469H30.1055C30.3859 19.0469 30.6133 18.8195 30.6133 18.5391C30.6133 18.2586 30.3859 18.0312 30.1055 18.0312Z" fill="#0090CF"/>
<path d="M28.6328 38.9531C28.4993 38.9531 28.3682 39.0074 28.2738 39.1019C28.1793 39.1964 28.125 39.3274 28.125 39.4609C28.125 39.5945 28.1793 39.7255 28.2738 39.8199C28.3682 39.9144 28.4993 39.9688 28.6328 39.9688C28.7664 39.9688 28.8974 39.9144 28.9918 39.8199C29.0863 39.7255 29.1406 39.5945 29.1406 39.4609C29.1406 39.3274 29.0863 39.1964 28.9918 39.1019C28.8974 39.0075 28.7664 38.9531 28.6328 38.9531Z" fill="#0090CF"/>
<path d="M44.4766 24.7344H37.2656V18.5391C37.2656 17.139 36.1266 16 34.7266 16H22.5391C21.139 16 20 17.139 20 18.5391V26.6728C20 26.9532 20.2273 27.1806 20.5078 27.1806C20.7883 27.1806 21.0156 26.9532 21.0156 26.6728V21.0781H36.25V24.7344H34.3203C33.4803 24.7344 32.7969 25.4178 32.7969 26.2578V36.9219H21.0156V31.2431C21.0156 30.9627 20.7883 30.7353 20.5078 30.7353C20.2273 30.7353 20 30.9627 20 31.2431V39.4609C20 40.861 21.139 42 22.5391 42H44.4766C45.3166 42 46 41.3166 46 40.4766V26.2578C46 25.4178 45.3166 24.7344 44.4766 24.7344ZM21.0156 20.0625V18.5391C21.0156 17.699 21.699 17.0156 22.5391 17.0156H34.7266C35.5666 17.0156 36.25 17.699 36.25 18.5391V20.0625H21.0156ZM21.0156 39.4609V37.9375H32.7969V40.4766C32.7969 40.6546 32.8279 40.8254 32.8842 40.9844H22.5391C21.699 40.9844 21.0156 40.301 21.0156 39.4609ZM34.3203 40.9844C34.0403 40.9844 33.8125 40.7566 33.8125 40.4766V26.2578C33.8125 25.9778 34.0403 25.75 34.3203 25.75H35.4375V40.9844H34.3203ZM36.4531 40.9844V25.75H38.0781V40.9844H36.4531ZM44.9844 40.4766C44.9844 40.7566 44.7566 40.9844 44.4766 40.9844H39.0938V25.75H44.4766C44.7566 25.75 44.9844 25.9778 44.9844 26.2578V40.4766Z" fill="#0090CF"/>
<path d="M42.0391 35.5C40.975 35.5 40.1094 36.3657 40.1094 37.4297C40.1094 38.4937 40.975 39.3594 42.0391 39.3594C43.1031 39.3594 43.9688 38.4937 43.9688 37.4297C43.9688 36.3657 43.1031 35.5 42.0391 35.5ZM42.0391 38.3438C41.5351 38.3438 41.125 37.9337 41.125 37.4297C41.125 36.9257 41.5351 36.5156 42.0391 36.5156C42.5431 36.5156 42.9531 36.9257 42.9531 37.4297C42.9531 37.9337 42.5431 38.3438 42.0391 38.3438Z" fill="#0090CF"/>
<path d="M20.5078 29.4657C20.6414 29.4657 20.7724 29.4118 20.8668 29.3169C20.9613 29.2225 21.0156 29.0914 21.0156 28.9579C21.0156 28.8243 20.9613 28.6933 20.8668 28.5989C20.7724 28.5045 20.6414 28.4501 20.5078 28.4501C20.3743 28.4501 20.2432 28.5044 20.1488 28.5989C20.0543 28.6933 20 28.8243 20 28.9579C20 29.092 20.0543 29.2225 20.1488 29.3169C20.2432 29.4118 20.3743 29.4657 20.5078 29.4657Z" fill="#0090CF"/>
<path d="M26.8965 31.8491C26.6618 31.6957 26.3471 31.7614 26.1935 31.9961C26.04 32.2308 26.1058 32.5455 26.3405 32.699C27.0607 33.1702 27.5435 33.2958 28.1927 33.3228V33.9453C28.1927 34.2257 28.4201 34.4531 28.7006 34.4531C28.981 34.4531 29.2084 34.2257 29.2084 33.9453V33.2726C30.4021 33.0293 31.0995 32.0409 31.2548 31.1173C31.4552 29.9254 30.8314 28.889 29.6658 28.477C29.5154 28.4239 29.3618 28.3683 29.2084 28.3105V25.654C29.6254 25.7544 29.8715 25.9665 29.8882 25.9813C29.9787 26.0649 30.0983 26.1151 30.2313 26.1151C30.5117 26.1151 30.7391 25.8878 30.7391 25.6073C30.7391 25.4596 30.6758 25.3268 30.5751 25.234C30.5448 25.206 30.0388 24.75 29.2084 24.6202V24.0548C29.2084 23.7744 28.981 23.547 28.7006 23.547C28.4201 23.547 28.1927 23.7744 28.1927 24.0548V24.6426C28.088 24.6629 27.9808 24.6887 27.8708 24.7218C27.1047 24.9526 26.5322 25.6087 26.3766 26.434C26.2351 27.1853 26.475 27.9091 27.0027 28.323C27.2995 28.5558 27.672 28.7683 28.1927 28.9953V32.307C27.7163 32.2836 27.4143 32.1878 26.8965 31.8491ZM27.6294 27.5238C27.4012 27.3448 27.3036 26.9993 27.3747 26.622C27.4414 26.2683 27.7126 25.8308 28.1927 25.6862C28.2024 25.6833 28.183 25.689 28.1927 25.6862V27.8725C27.9783 27.7622 27.7854 27.6461 27.6294 27.5238ZM29.3272 29.4346C30.3611 29.8 30.2974 30.6861 30.2532 30.9489C30.1673 31.4599 29.8122 32.0031 29.2083 32.2181V29.3922C29.2474 29.4062 29.287 29.4203 29.3272 29.4346Z" fill="#0090CF"/>
<defs>
<filter id="filter0_d" x="0" y="0" width="66" height="66" filterUnits="userSpaceOnUse" color-interpolation-filters="sRGB">
<feFlood flood-opacity="0" result="BackgroundImageFix"/>
<feColorMatrix in="SourceAlpha" type="matrix" values="0 0 0 0 0 0 0 0 0 0 0 0 0 0 0 0 0 0 127 0"/>
<feOffset dy="4"/>
<feGaussianBlur stdDeviation="4"/>
<feColorMatrix type="matrix" values="0 0 0 0 0 0 0 0 0 0 0 0 0 0 0 0 0 0 0.25 0"/>
<feBlend mode="normal" in2="BackgroundImageFix" result="effect1_dropShadow"/>
<feBlend mode="normal" in="SourceGraphic" in2="effect1_dropShadow" result="shape"/>
</filter>
</defs>
</svg>
