<svg width="121" height="46" viewBox="0 0 121 46" fill="none" xmlns="http://www.w3.org/2000/svg">
<path d="M82.0434 26.1127L83.2449 26.4732C83.1648 26.8136 83.0446 27.0939 82.8644 27.3142C82.6842 27.5345 82.4839 27.7147 82.2236 27.8149C81.9633 27.935 81.6429 27.9951 81.2423 27.9951C80.7617 27.9951 80.3813 27.935 80.0609 27.7948C79.7605 27.6546 79.5002 27.4143 79.2799 27.0539C79.0596 26.7135 78.9395 26.2529 78.9395 25.7122C78.9395 24.9913 79.1397 24.4306 79.5202 24.0301C79.9007 23.6296 80.4614 23.4493 81.1622 23.4493C81.723 23.4493 82.1435 23.5695 82.4639 23.7898C82.7843 24.0101 83.0246 24.3505 83.1648 24.8311L81.9633 25.0914C81.9232 24.9512 81.8832 24.8511 81.8231 24.791C81.743 24.6909 81.6629 24.6108 81.5427 24.5507C81.4226 24.4907 81.3024 24.4706 81.1823 24.4706C80.8819 24.4706 80.6416 24.5908 80.4814 24.8511C80.3612 25.0313 80.3012 25.3317 80.3012 25.7122C80.3012 26.1928 80.3813 26.5332 80.5214 26.7135C80.6616 26.8937 80.8819 26.9938 81.1422 26.9938C81.4025 26.9938 81.6028 26.9137 81.7229 26.7735C81.8832 26.5933 81.9833 26.3931 82.0434 26.1127Z" fill="#007FBF"/>
<path d="M83.7255 25.7123C83.7255 24.9914 83.9257 24.4307 84.3262 24.0302C84.7267 23.6297 85.2874 23.4294 86.0083 23.4294C86.7493 23.4294 87.31 23.6297 87.7105 24.0102C88.111 24.4107 88.3112 24.9514 88.3112 25.6723C88.3112 26.1929 88.2311 26.6135 88.0509 26.9339C87.8707 27.2543 87.6304 27.5146 87.29 27.6948C86.9696 27.875 86.549 27.9752 86.0684 27.9752C85.5678 27.9752 85.1673 27.8951 84.8269 27.7349C84.5064 27.5747 84.2461 27.3344 84.0258 26.9739C83.8056 26.6135 83.7255 26.233 83.7255 25.7123ZM85.0872 25.7123C85.0872 26.1529 85.1673 26.4733 85.3275 26.6735C85.4877 26.8738 85.708 26.9739 86.0083 26.9739C86.3087 26.9739 86.529 26.8738 86.6892 26.6936C86.8494 26.4933 86.9295 26.1529 86.9295 25.6723C86.9295 25.2517 86.8494 24.9514 86.6692 24.7711C86.509 24.5709 86.2687 24.4908 85.9883 24.4908C85.708 24.4908 85.4877 24.5909 85.3275 24.7912C85.1673 24.9514 85.0872 25.2718 85.0872 25.7123Z" fill="#007FBF"/>
<path d="M89.0121 23.5095H90.7943L91.4752 26.1929L92.1561 23.5095H93.9383V27.9151H92.8169V24.5508L91.9558 27.9151H90.9545L90.0935 24.5508V27.9151H88.972V23.5095H89.0121Z" fill="#007FBF"/>
<path d="M94.8193 23.5095H97.0822C97.5828 23.5095 97.9433 23.6297 98.1836 23.87C98.4239 24.1103 98.544 24.4307 98.544 24.8712C98.544 25.3118 98.4038 25.6722 98.1435 25.9125C97.8832 26.1729 97.4627 26.293 96.922 26.293H96.1811V27.9351H94.8193V23.5095ZM96.1811 25.3919H96.5215C96.7818 25.3919 96.962 25.3518 97.0822 25.2517C97.1823 25.1516 97.2424 25.0515 97.2424 24.9113C97.2424 24.7711 97.2023 24.6509 97.1022 24.5508C97.0021 24.4507 96.8419 24.4107 96.5816 24.4107H96.2011V25.3919H96.1811Z" fill="#007FBF"/>
<path d="M99.265 23.5095H100.627V26.8337H102.749V27.9151H99.265V23.5095Z" fill="#007FBF"/>
<path d="M103.43 23.5095H104.792V27.9151H103.43V23.5095Z" fill="#007FBF"/>
<path d="M108.477 27.1741H106.935L106.714 27.895H105.333L106.995 23.4895H108.477L110.139 27.895H108.717L108.477 27.1741ZM108.196 26.233L107.716 24.651L107.235 26.233H108.196Z" fill="#007FBF"/>
<path d="M110.559 23.5095H111.821L113.483 25.9526V23.5095H114.765V27.9151H113.483L111.841 25.492V27.9151H110.559V23.5095Z" fill="#007FBF"/>
<path d="M115.365 23.5095H119.511V24.5909H118.129V27.9151H116.767V24.5909H115.385V23.5095H115.365Z" fill="#007FBF"/>
<path d="M65.6627 30.2181L69.6077 28.9765L68.3261 26.1329C67.3849 27.3144 66.4437 28.8363 65.6627 30.2181ZM64.321 17.2217L56.5913 0L0 3.20403L15.6797 45.9779L45.8578 36.4659C43.9353 33.7024 43.2345 30.4183 45.4573 28.8163C47.9404 27.014 51.6851 29.0966 54.0681 32.0403C56.371 28.1955 62.8391 19.2442 64.321 17.2217Z" fill="#007FBF"/>
<path d="M54.8282 12.4455C57.1912 12.4455 59.1136 10.6433 59.1136 8.40044C59.1136 6.15762 57.1912 4.35535 54.8282 4.35535C52.4653 4.35535 50.5428 6.15762 50.5428 8.40044C50.5428 10.6232 52.4653 12.4455 54.8282 12.4455ZM51.3238 14.1877H58.3327V32.5108H51.3238V14.1877Z" fill="white"/>
<path d="M47.8594 19.5344C47.9194 19.5544 47.9595 19.5344 47.9595 19.4743V14.8284C47.9595 14.7684 47.9194 14.7083 47.8594 14.6682C47.8594 14.6682 46.9382 14.0675 44.1347 13.9073C43.9945 13.8272 41.5314 13.8071 40.8706 13.9073C30.6577 14.7283 30.2772 22.1176 30.2772 22.438V24.2403C30.2772 24.4606 30.2772 32.0101 40.8706 32.6709C41.9119 32.751 43.9344 32.6709 44.1347 32.6709C46.5778 32.6709 48.2599 31.93 48.2599 31.93C48.32 31.9099 48.36 31.8499 48.36 31.7898V27.4443C48.36 27.3842 48.3199 27.3642 48.2799 27.4043C48.2799 27.4043 47.5189 28.005 44.1948 28.3455C43.2536 28.4456 42.793 28.4055 42.4526 28.3455C37.7266 27.5444 37.5063 24.1001 37.5063 24.1001C37.5063 24.04 37.4863 23.9399 37.4863 23.8998V22.5782C37.4863 22.5181 37.4863 22.418 37.5063 22.3779C37.5063 22.3779 37.8267 18.6733 42.4526 18.2728H44.1948C46.2173 18.5331 47.8594 19.5344 47.8594 19.5344Z" fill="white"/>
<path d="M10.8127 32.4508C10.8127 32.5108 10.8528 32.5509 10.9129 32.5509H17.7415C17.8015 32.5509 17.8416 32.5108 17.8416 32.4508V27.124C17.8416 27.064 17.8816 27.0239 17.9417 27.0239C17.9417 27.0239 28.8555 27.8049 28.8555 20.4957C28.8555 14.7084 22.0068 14.0876 19.764 14.1877C19.724 14.1877 10.9129 14.1877 10.9129 14.1877C10.8528 14.1877 10.8127 14.2278 10.8127 14.2879V32.4508ZM17.7214 22.9588V18.1728H19.4036C19.4036 18.1728 21.8266 18.2729 22.0269 19.935C22.0669 20.0551 22.0669 20.8762 22.0269 20.9162C21.7065 22.8587 19.6038 22.9588 19.6038 22.9588H17.7214Z" fill="white"/>
<path d="M55.0293 41.352C55.59 41.352 56.0306 41.352 56.7515 41.0316C59.2346 39.73 67.6252 19.2442 76.4763 12.9362C76.5364 12.8962 76.5965 12.8361 76.6365 12.776C76.6966 12.6959 76.6966 12.6158 76.6966 12.6158C76.6966 12.6158 76.6966 12.1953 75.395 12.1953C67.5251 11.975 59.3348 28.4958 55.0293 35.024C54.9693 35.1041 54.6889 35.024 54.6889 35.024C54.6889 35.024 51.8053 31.6198 49.3021 30.3181C49.242 30.2981 48.9617 30.198 48.6613 30.218C48.4611 30.218 47.2996 30.4583 46.7589 31.019C46.1181 31.6999 46.1381 32.0803 46.1381 32.9014C46.1381 32.9614 46.1782 33.2418 46.2583 33.382C46.8791 34.4633 49.6626 38.3082 51.9655 40.4309C52.3059 40.6912 52.8466 41.352 55.0293 41.352Z" fill="#0096D4"/>
<path d="M78.7992 6.74841H85.3474C86.6491 6.74841 87.6904 6.92864 88.4714 7.26907C89.2724 7.62952 89.9332 8.13016 90.4339 8.77096C90.9545 9.4318 91.335 10.1928 91.5553 11.0538C91.7956 11.9149 91.9157 12.8361 91.9157 13.8173C91.9157 15.3392 91.7355 16.5207 91.3951 17.3618C91.0546 18.2028 90.574 18.9037 89.9532 19.4845C89.3325 20.0452 88.6716 20.4256 87.9708 20.6259C87.0095 20.8862 86.1284 21.0064 85.3474 21.0064H78.7992V6.74841ZM83.2047 9.97248V17.7623H84.2861C85.2073 17.7623 85.8681 17.6622 86.2486 17.4619C86.6291 17.2617 86.9495 16.9012 87.1697 16.4006C87.39 15.8999 87.5102 15.0589 87.5102 13.9174C87.5102 12.3955 87.2699 11.3742 86.7692 10.8135C86.2686 10.2528 85.4676 9.97248 84.3061 9.97248H83.2047Z" fill="#007FBF"/>
<path d="M93.1372 16.3005L97.3425 16.0402C97.4426 16.721 97.6229 17.2417 97.9032 17.6022C98.3638 18.1829 99.0046 18.4632 99.8457 18.4632C100.466 18.4632 100.967 18.3231 101.307 18.0227C101.648 17.7223 101.828 17.3819 101.828 17.0014C101.828 16.6409 101.668 16.3005 101.348 16.0001C101.027 15.6998 100.266 15.4394 99.0847 15.1791C97.1422 14.7386 95.7805 14.1578 94.9395 13.4369C94.0984 12.716 93.6979 11.7948 93.6979 10.6734C93.6979 9.9325 93.9182 9.25164 94.3387 8.59081C94.7592 7.92998 95.4001 7.42935 96.2611 7.04887C97.1222 6.66839 98.2837 6.48816 99.7655 6.48816C101.588 6.48816 102.99 6.82859 103.931 7.50945C104.892 8.1903 105.453 9.27167 105.633 10.7535L101.468 10.9938C101.348 10.353 101.127 9.89245 100.767 9.59207C100.406 9.29169 99.9257 9.15151 99.305 9.15151C98.7843 9.15151 98.4038 9.25164 98.1435 9.47192C97.8832 9.6922 97.763 9.95252 97.763 10.2729C97.763 10.4932 97.8632 10.7135 98.0834 10.8937C98.2837 11.0739 98.7843 11.2542 99.5653 11.4144C101.488 11.8349 102.869 12.2554 103.711 12.676C104.552 13.0965 105.152 13.6372 105.533 14.2579C105.913 14.8787 106.094 15.5996 106.094 16.3806C106.094 17.3018 105.833 18.1428 105.333 18.9038C104.832 19.6848 104.111 20.2655 103.21 20.666C102.309 21.0665 101.147 21.2668 99.7655 21.2668C97.3425 21.2668 95.6604 20.8062 94.7192 19.865C93.798 18.9238 93.2774 17.7423 93.1372 16.3005Z" fill="#007FBF"/>
<path d="M107.215 16.3005L111.42 16.0402C111.52 16.721 111.701 17.2417 111.981 17.6022C112.442 18.1829 113.082 18.4632 113.923 18.4632C114.544 18.4632 115.045 18.3231 115.385 18.0227C115.726 17.7223 115.906 17.3819 115.906 17.0014C115.906 16.6409 115.746 16.3005 115.425 16.0001C115.105 15.6998 114.344 15.4394 113.162 15.1791C111.22 14.7386 109.858 14.1578 109.017 13.4369C108.196 12.716 107.776 11.7948 107.776 10.6734C107.776 9.9325 107.996 9.25164 108.416 8.59081C108.837 7.92998 109.478 7.42935 110.339 7.04887C111.2 6.66839 112.361 6.48816 113.843 6.48816C115.666 6.48816 117.067 6.82859 118.009 7.50945C118.97 8.1903 119.53 9.27167 119.711 10.7535L115.545 10.9938C115.425 10.353 115.205 9.89245 114.845 9.59207C114.484 9.29169 114.004 9.15151 113.383 9.15151C112.862 9.15151 112.482 9.25164 112.221 9.47192C111.961 9.6922 111.841 9.95252 111.841 10.2729C111.841 10.4932 111.941 10.7135 112.161 10.8937C112.361 11.0739 112.862 11.2542 113.643 11.4144C115.565 11.8349 116.947 12.2554 117.788 12.676C118.629 13.0965 119.23 13.6372 119.611 14.2579C119.991 14.8787 120.171 15.5996 120.171 16.3806C120.171 17.3018 119.911 18.1428 119.41 18.9038C118.91 19.6848 118.189 20.2655 117.288 20.666C116.387 21.0665 115.225 21.2668 113.843 21.2668C111.42 21.2668 109.738 20.8062 108.797 19.865C107.856 18.9238 107.335 17.7423 107.215 16.3005Z" fill="#007FBF"/>
</svg>
